<svg width="146" height="32" viewBox="0 0 146 32" fill="none" xmlns="http://www.w3.org/2000/svg">
<path d="M12.7272 2.15909L7.89766 31.25H-6.65821e-05L4.82948 2.15909H12.7272ZM14.5951 8.52273L15.6746 2.15909H40.9587L39.8792 8.52273H31.1292L27.3792 31.25H19.5951L23.3451 8.52273H14.5951ZM39.2151 31.25L42.8515 9.43182H50.6924L47.056 31.25H39.2151ZM47.1129 7.15909C46.0523 7.15909 45.1952 6.80871 44.5418 6.10795C43.8884 5.39773 43.647 4.55492 43.8174 3.57955C43.9879 2.58523 44.5087 1.74242 45.3799 1.05114C46.2511 0.350378 47.217 0 48.2776 0C49.3477 0 50.2 0.350378 50.8345 1.05114C51.4689 1.74242 51.7057 2.58523 51.5447 3.57955C51.3932 4.55492 50.8818 5.39773 50.0106 6.10795C49.1488 6.80871 48.1829 7.15909 47.1129 7.15909ZM60.9943 18.9773L58.9488 31.25H51.1079L54.7443 9.43182H62.1874L61.5056 13.5795H61.7329C62.4242 12.1875 63.4327 11.1032 64.7585 10.3267C66.0937 9.54072 67.5662 9.14773 69.1761 9.14773C70.7196 9.14773 72.0028 9.49811 73.0255 10.1989C74.0482 10.8996 74.7727 11.8655 75.1988 13.0966C75.6249 14.3277 75.7007 15.7386 75.4261 17.3295L73.0965 31.25H65.2556L67.3011 18.9773C67.481 17.8977 67.3484 17.0502 66.9033 16.4347C66.4677 15.8191 65.748 15.5114 64.7443 15.5114C64.1098 15.5114 63.5274 15.6534 62.9971 15.9375C62.4763 16.2121 62.0407 16.6098 61.6903 17.1307C61.3494 17.642 61.1174 18.2576 60.9943 18.9773ZM84.7798 31.5341C83.2267 31.5341 81.8631 31.1269 80.6889 30.3125C79.5241 29.4981 78.686 28.2623 78.1746 26.6051C77.6728 24.9479 77.6301 22.8598 78.0468 20.3409C78.4824 17.7083 79.2447 15.5682 80.3337 13.9205C81.4322 12.2727 82.6917 11.0653 84.1121 10.2983C85.5421 9.53125 86.9767 9.14773 88.4161 9.14773C89.4957 9.14773 90.4095 9.33712 91.1576 9.71591C91.9152 10.0852 92.5165 10.5824 92.9616 11.2074C93.4067 11.8229 93.7097 12.5 93.8707 13.2386H93.9843L95.8309 2.15909H103.672L98.8423 31.25H91.0582L91.6548 27.6705H91.4843C91.0582 28.4091 90.5137 29.072 89.8508 29.6591C89.1974 30.2367 88.4445 30.696 87.5923 31.0369C86.74 31.3684 85.8025 31.5341 84.7798 31.5341ZM88.6718 25.5114C89.3915 25.5114 90.0449 25.303 90.632 24.8864C91.2192 24.4602 91.7163 23.8636 92.1235 23.0966C92.5307 22.3201 92.8195 21.4015 92.99 20.3409C93.1699 19.2614 93.1841 18.3381 93.0326 17.571C92.8811 16.7945 92.5781 16.2027 92.1235 15.7955C91.6784 15.3788 91.0961 15.1705 90.3764 15.1705C89.6567 15.1705 89.008 15.3788 88.4303 15.7955C87.8527 16.2027 87.365 16.7945 86.9673 17.571C86.579 18.3381 86.2949 19.2614 86.115 20.3409C85.9351 21.4205 85.9114 22.3485 86.044 23.125C86.186 23.892 86.4796 24.4839 86.9247 24.9006C87.3697 25.3078 87.9521 25.5114 88.6718 25.5114ZM113.089 31.6477C110.76 31.6477 108.828 31.2027 107.294 30.3125C105.76 29.4129 104.68 28.125 104.055 26.4489C103.43 24.7633 103.317 22.7462 103.714 20.3977C104.093 18.1439 104.874 16.1742 106.058 14.4886C107.251 12.803 108.752 11.4915 110.561 10.554C112.379 9.61648 114.415 9.14773 116.669 9.14773C118.317 9.14773 119.761 9.40341 121.001 9.91477C122.251 10.4261 123.269 11.1695 124.055 12.1449C124.841 13.1203 125.372 14.2992 125.646 15.6818C125.93 17.0549 125.93 18.608 125.646 20.3409L125.362 22.1591H105.874L106.555 17.8409H118.828C118.923 17.2159 118.861 16.6667 118.643 16.1932C118.435 15.7102 118.099 15.3362 117.635 15.071C117.18 14.7964 116.631 14.6591 115.987 14.6591C115.343 14.6591 114.737 14.7964 114.169 15.071C113.61 15.3456 113.132 15.7292 112.734 16.2216C112.346 16.714 112.086 17.2917 111.953 17.9545L111.101 22.5C110.987 23.2008 111.03 23.8258 111.229 24.375C111.427 24.9242 111.773 25.3551 112.266 25.6676C112.758 25.9801 113.392 26.1364 114.169 26.1364C114.699 26.1364 115.201 26.0653 115.675 25.9233C116.158 25.7718 116.584 25.554 116.953 25.2699C117.332 24.9763 117.635 24.6212 117.862 24.2045H125.021C124.51 25.7197 123.7 27.036 122.592 28.1534C121.494 29.2614 120.14 30.1231 118.53 30.7386C116.929 31.3447 115.116 31.6477 113.089 31.6477ZM127.028 31.25L130.664 9.43182H138.278L137.596 13.5795H137.823C138.476 12.0455 139.296 10.9233 140.28 10.2131C141.265 9.50284 142.34 9.14773 143.505 9.14773C143.846 9.14773 144.173 9.17614 144.485 9.23295C144.807 9.2803 145.124 9.34659 145.437 9.43182L144.3 16.1364C143.931 15.9943 143.472 15.8949 142.923 15.8381C142.373 15.7718 141.886 15.7386 141.459 15.7386C140.702 15.7386 139.992 15.9138 139.329 16.2642C138.675 16.6051 138.117 17.0881 137.653 17.7131C137.198 18.3286 136.895 19.053 136.744 19.8864L134.869 31.25H127.028Z" fill="white"/>
</svg>
