<svg width="20" height="20" viewBox="0 0 20 20" fill="none" xmlns="http://www.w3.org/2000/svg">
<path d="M19.8538 19.1463L14.8537 14.1463C14.8514 14.144 14.8484 14.1433 14.8461 14.1413C16.1817 12.64 17.0001 10.668 17.0001 8.5C17.0001 3.80566 13.1944 0 8.50003 0C3.80568 0 0 3.80566 0 8.5C0 13.1943 3.80568 17 8.50003 17C10.668 17 12.6397 16.1817 14.1414 14.8457C14.1437 14.848 14.1444 14.851 14.1464 14.8533L19.1464 19.8533C19.2441 19.9513 19.3721 20 19.5001 20C19.6281 20 19.7561 19.9513 19.8538 19.8537C20.0487 19.6583 20.0487 19.3417 19.8538 19.1463ZM8.50003 16C4.36467 16 1 12.6354 1 8.5C1 4.36465 4.36467 1 8.50003 1C12.6354 1 16.0001 4.36465 16.0001 8.5C16.0001 12.6354 12.6354 16 8.50003 16Z" fill="white"/>
</svg>
