<svg width="35" height="35" viewBox="0 0 35 35" fill="none" xmlns="http://www.w3.org/2000/svg">
<path d="M15.3124 1.09375C15.0827 1.09363 14.8589 1.16569 14.6726 1.29989C14.4862 1.43408 14.3468 1.62352 14.2742 1.84135L13.1633 5.17387C12.7148 5.33178 12.2761 5.51282 11.8474 5.7186L8.70502 4.14848C8.49968 4.04586 8.26725 4.0105 8.04067 4.0473C7.81408 4.0841 7.60482 4.19128 7.4425 4.3536L4.34924 7.44681C4.18691 7.60911 4.07975 7.81845 4.04294 8.04504C4.00613 8.27162 4.04155 8.50402 4.14417 8.70937L5.71216 11.8453C5.5059 12.2762 5.32338 12.7169 5.16528 13.1677L1.83704 14.2785C1.61921 14.3512 1.42977 14.4906 1.29558 14.6769C1.16138 14.8632 1.08923 15.087 1.08936 15.3166V19.6917C1.08923 19.9213 1.16138 20.1452 1.29558 20.3316C1.42977 20.5179 1.61921 20.6573 1.83704 20.73L5.17596 21.8429C5.33334 22.2887 5.51404 22.724 5.71857 23.1502L4.14417 26.2991C4.04156 26.5044 4.00615 26.7368 4.04296 26.9634C4.07976 27.19 4.18691 27.3992 4.34924 27.5615L7.4425 30.657C7.60482 30.8193 7.81408 30.9264 8.04067 30.9632C8.26725 31 8.49968 30.9646 8.70502 30.862L11.8474 29.2897C12.2757 29.4943 12.7133 29.675 13.1612 29.8323L14.2742 33.1691C14.3468 33.387 14.4862 33.5764 14.6726 33.7106C14.8589 33.8448 15.0827 33.917 15.3124 33.9168H19.6874C19.917 33.917 20.1409 33.8448 20.3272 33.7106C20.5135 33.5764 20.6529 33.387 20.7256 33.1691L21.8386 29.8259C22.2832 29.6692 22.7186 29.489 23.1438 29.2854L26.2947 30.862C26.5001 30.9646 26.7325 31 26.9591 30.9632C27.1857 30.9264 27.3949 30.8193 27.5572 30.657L30.6505 27.5615C30.8128 27.3992 30.92 27.19 30.9568 26.9634C30.9936 26.7368 30.9582 26.5044 30.8556 26.2991L29.2855 23.1588C29.4913 22.7294 29.6722 22.2899 29.8302 21.8408L33.1627 20.73C33.3805 20.6573 33.57 20.5179 33.7042 20.3316C33.8384 20.1452 33.9105 19.9213 33.9104 19.6917V15.3168C33.9105 15.0871 33.8384 14.8632 33.7042 14.6769C33.57 14.4906 33.3805 14.3512 33.1627 14.2785L29.8281 13.1677C29.6702 12.7199 29.4888 12.2819 29.2833 11.8539L30.8556 8.70937C30.9582 8.50402 30.9936 8.27162 30.9568 8.04504C30.92 7.81845 30.8128 7.60911 30.6505 7.44681L27.5572 4.3536C27.3949 4.19128 27.1857 4.0841 26.9591 4.0473C26.7325 4.0105 26.5001 4.04598 26.2947 4.1486L23.1609 5.71444C22.7286 5.50775 22.2866 5.32584 21.8343 5.16756L20.7256 1.84147C20.6529 1.62363 20.5135 1.43409 20.3272 1.29989C20.1409 1.16568 19.917 1.09363 19.6874 1.09375H15.3124ZM16.1006 3.28116H18.8991L19.9138 6.32743C19.9694 6.49435 20.0645 6.64549 20.1909 6.76784C20.3174 6.89019 20.4715 6.98015 20.6401 7.03024C21.352 7.2419 22.0408 7.52499 22.6952 7.87624C22.8493 7.95933 23.0212 8.00419 23.1963 8.00706C23.3713 8.00994 23.5446 7.97075 23.7014 7.89277L26.5682 6.45939L28.5463 8.4375L27.1065 11.3171C27.0279 11.4741 26.9883 11.6476 26.9909 11.8231C26.9935 11.9986 27.0383 12.1709 27.1215 12.3255C27.4719 12.9755 27.7569 13.6584 27.9696 14.3655C28.0197 14.5336 28.1096 14.6871 28.2315 14.8131C28.3535 14.9392 28.5039 15.0341 28.6702 15.0898L31.7229 16.1066V18.905L28.6724 19.9219C28.5061 19.9776 28.3556 20.0724 28.2337 20.1985C28.1117 20.3245 28.0219 20.478 27.9717 20.6461C27.7593 21.3546 27.4743 22.0392 27.1236 22.6904C27.0404 22.845 26.9956 23.0173 26.993 23.1928C26.9904 23.3683 27.0301 23.5418 27.1086 23.6988L28.5463 26.5741L26.5682 28.5544L23.6821 27.1103C23.5251 27.0319 23.3515 26.9926 23.176 26.9955C23.0005 26.9983 22.8282 27.0433 22.6738 27.1268C22.0261 27.4753 21.3467 27.7588 20.6423 27.9706C20.4742 28.0208 20.3207 28.1107 20.1947 28.2327C20.0687 28.3546 19.9738 28.505 19.9181 28.6713L18.8991 31.7326H16.1006L15.0817 28.6756C15.0262 28.5089 14.9315 28.358 14.8055 28.2357C14.6794 28.1134 14.5257 28.0232 14.3575 27.9728C13.6504 27.7615 12.9654 27.4802 12.3152 27.1311C12.1611 27.048 11.9893 27.0031 11.8142 27.0003C11.6391 26.9974 11.4659 27.0366 11.3091 27.1145L8.43158 28.5544L6.45343 26.5741L7.89538 23.6902C7.97396 23.5333 8.01363 23.3597 8.01102 23.1842C8.00842 23.0087 7.96362 22.8365 7.88042 22.682C7.53103 22.0337 7.24683 21.3512 7.03447 20.6461C6.98399 20.4784 6.89401 20.3254 6.77208 20.1997C6.65015 20.0741 6.49984 19.9794 6.33379 19.9239L3.27684 18.905V16.1066L6.32524 15.0898C6.49193 15.0344 6.64283 14.9396 6.76516 14.8135C6.8875 14.6875 6.97767 14.5338 7.02806 14.3655C7.24018 13.6557 7.52311 12.9694 7.87401 12.3169C7.95722 12.1624 8.00202 11.9901 8.00462 11.8146C8.00723 11.6391 7.96756 11.4655 7.88898 11.3085L6.45343 8.4375L8.43158 6.45939L11.3091 7.89706C11.4661 7.9754 11.6398 8.01473 11.8153 8.01186C11.9907 8.00898 12.163 7.96398 12.3174 7.88053C12.968 7.52998 13.6518 7.24487 14.3596 7.03239C14.5277 6.9822 14.6812 6.89243 14.8072 6.77049C14.9332 6.64854 15.0281 6.49801 15.0838 6.33172L16.1006 3.28116Z" fill="white" fill-opacity="0.5"/>
<path d="M17.4959 9.84161C13.2804 9.84161 9.8418 13.2883 9.8418 17.5038C9.8418 21.7192 13.2804 25.1579 17.4959 25.1579C21.7114 25.1579 25.1581 21.7192 25.1581 17.5038C25.1581 13.2883 21.7114 9.84161 17.4959 9.84161ZM17.4959 12.0297C20.5292 12.0297 22.97 14.4705 22.97 17.5038C22.97 20.537 20.5292 22.9698 17.4959 22.9698C14.4626 22.9698 12.0298 20.537 12.0298 17.5038C12.0298 14.4705 14.4626 12.0297 17.4959 12.0297Z" fill="white" fill-opacity="0.5"/>
</svg>
